<svg width="128" height="128" viewBox="0 0 128 128" fill="none" xmlns="http://www.w3.org/2000/svg">
    <path d="M47.5 67L76 83.5C77.1815 84.1794 77.1825 85.75 76.4766 86.8062L66 103C65.5611 103.656 64.9482 103.834 64.0923 103.834C63.6159 103.834 62.4142 103.735 62 103.5L33.5 87C33.0999 86.7751 32.7196 86.4031 32.5 86L24 70.5C23.8113 70.1638 23.4839 69.3852 23.5001 69C23.5162 68.6148 24.0496 67.3193 24.2657 67C24.7047 66.3453 25.6405 66.5 26.5 66.5L45.5 66.5C45.9755 66.4996 47.0868 66.7647 47.5 67Z" fill="#CF152D"/>
    <path d="M32.8914 69.8736C30.7861 70.9134 29.8832 73.4574 30.8774 75.5432C31.5844 77.0246 33.0615 77.8815 34.6116 77.8815C35.2628 77.8821 35.9067 77.731 36.5011 77.438C37.5177 76.935 38.2903 76.0663 38.6711 75.001C38.8609 74.4823 38.9452 73.9241 38.9182 73.3656C38.8913 72.8072 38.7537 72.262 38.5151 71.7684C37.5227 69.6825 34.9991 68.833 32.8914 69.8736Z" fill="#323232"/>
    <path d="M84.4158 53.1207C80.9911 51.9219 77.668 50.7815 74.5397 49.7318C71.3528 48.6637 68.208 47.5782 65.2003 46.5074C59.2061 44.3127 56.1664 41.3819 56.1664 37.7835C56.1664 36.5636 56.5569 35.4059 57.3278 34.3396C58.124 33.2434 59.129 32.3155 60.2851 31.6091C61.5625 30.8426 62.9413 30.2596 64.381 29.8771C65.9255 29.4574 67.3895 29.2452 68.7356 29.2452C73.0784 29.2452 76.727 29.9384 79.5939 31.311C81.0917 31.9511 83.4885 33.2459 86.7184 35.1608C90.0104 37.1177 94.2361 39.7752 99.2876 43.0581L99.86 43.4293V12.0242L99.5765 11.9666C98.5341 11.7535 94.7857 10.5638 88.4348 8.43128C86.6672 7.82865 84.7944 7.29918 82.5686 6.7752C82.5267 6.76571 82.4892 6.74261 82.4619 6.70951C82.4346 6.67641 82.4191 6.63519 82.4177 6.59231V2.48092C82.4177 2.15496 82.3535 1.83221 82.2287 1.53109C82.1039 1.22997 81.921 0.956396 81.6904 0.725998C81.4598 0.495599 81.1861 0.312894 80.8849 0.188324C80.5837 0.0637537 80.2609 -0.000239615 79.935 6.74193e-07H53.5136C53.1877 -0.000119442 52.865 0.0639622 52.5639 0.188586C52.2628 0.31321 51.9892 0.495935 51.7587 0.726321C51.5283 0.956708 51.3454 1.23024 51.2207 1.5313C51.096 1.83236 51.0318 2.15504 51.0318 2.48092V7.4519C51.0322 7.49178 51.0195 7.5307 50.9957 7.56273C50.972 7.59476 50.9384 7.61814 50.9001 7.6293C45.9309 9.19302 41.4812 11.4344 37.6551 14.2929C33.616 17.3225 30.3239 21.0233 27.865 25.2856C25.4032 29.5662 24.1532 34.4777 24.1532 39.8821C24.1532 49.0733 26.5957 56.1531 31.4167 60.9238C31.9151 61.4075 32.4482 61.8547 32.9713 62.2863L24.7302 62.2744C24.3677 62.2756 24.0059 62.3062 23.6484 62.3659C19.729 63.006 17.8517 67.6276 19.74 71.1218L28.4895 87.3131L28.4978 87.3259L28.345 113.776V113.888L28.4191 113.98C29.521 115.338 33.637 117.118 41.0048 119.421C44.2491 120.364 47.5495 121.102 50.8864 121.632C50.9263 121.638 50.9627 121.659 50.989 121.69C51.0153 121.72 51.0298 121.759 51.0299 121.8V124.87C51.0302 125.7 51.36 126.496 51.947 127.083C52.534 127.67 53.33 128 54.1601 128H79.2829C80.113 128 80.9089 127.67 81.4957 127.083C82.0826 126.496 82.4122 125.7 82.4122 124.87V120.059C82.4118 120.019 82.4243 119.98 82.4479 119.948C82.4715 119.916 82.5049 119.893 82.543 119.881C87.61 118.257 92.2088 115.913 96.2251 112.91C104.894 106.417 109.29 97.0484 109.29 85.0608C109.29 75.6621 106.789 68.4744 101.852 63.6982C97.0545 58.7263 91.1828 55.1682 84.4158 53.1207ZM76.3384 86.5898L65.6694 102.479C65.2278 103.138 64.4487 103.532 63.5872 103.532C63.1083 103.532 62.6376 103.408 62.221 103.172L33.7047 86.8093L33.6873 86.8001C33.2849 86.5735 32.9544 86.2382 32.7335 85.8326L32.7097 85.7887L24.1331 69.9184C23.943 69.5801 23.8508 69.1957 23.867 68.808C23.8831 68.4204 24.0069 68.0449 24.2245 67.7237C24.6662 67.0653 25.4444 66.6711 26.3085 66.6711L45.5743 66.6986C46.0524 66.6982 46.5223 66.8224 46.9377 67.0589L75.4688 83.4276C76.6612 84.1116 77.0489 85.5299 76.3366 86.5898H76.3384Z" fill="#323232"/>
</svg>